<svg width="25" height="21" viewBox="0 0 25 21" fill="none" xmlns="http://www.w3.org/2000/svg">
<path d="M0 12.9706H0.609756V14.8235H0V12.9706Z" fill="#4F6367"/>
<path d="M0.609756 14.8235H1.21951V15.4412H0.609756V14.8235Z" fill="#4F6367"/>
<path d="M1.21951 15.4412H2.43902V16.0588H1.21951V15.4412Z" fill="#4F6367"/>
<path d="M2.43902 14.8235H3.04878V15.4412H2.43902V14.8235Z" fill="#4F6367"/>
<path d="M3.04878 12.9706H3.65854V14.8235H3.04878V12.9706Z" fill="#4F6367"/>
<path d="M5.4878 11.7353H6.09756V14.2059H5.4878V11.7353Z" fill="#4F6367"/>
<path d="M18.9024 11.7353H19.5122V14.2059H18.9024V11.7353Z" fill="#4F6367"/>
<path d="M21.3415 12.9706H21.9512V14.8235H21.3415V12.9706Z" fill="#4F6367"/>
<path d="M24.3902 12.9706H25V14.8235H24.3902V12.9706Z" fill="#4F6367"/>
<path d="M0.609756 10.5H1.21951V12.9706H0.609756V10.5Z" fill="#4F6367"/>
<path d="M1.21951 9.26471H1.82927V10.5H1.21951V9.26471Z" fill="#4F6367"/>
<path d="M1.82927 8.02941H2.43902V9.26471H1.82927V8.02941Z" fill="#4F6367"/>
<path d="M2.43902 7.41176H3.65854V8.02941H2.43902V7.41176Z" fill="#4F6367"/>
<path d="M3.65854 6.79412H7.31707V7.41176H3.65854V6.79412Z" fill="#4F6367"/>
<path d="M7.31707 7.41176H8.53659V8.02941H7.31707V7.41176Z" fill="#4F6367"/>
<path d="M7.92683 6.79412H8.53659V7.41176H7.92683V6.79412Z" fill="#4F6367"/>
<path d="M8.53659 5.55882H9.14634V6.79412H8.53659V5.55882Z" fill="#4F6367"/>
<path d="M9.14634 4.32353H9.7561V5.55882H9.14634V4.32353Z" fill="#4F6367"/>
<path d="M9.7561 3.08824H10.3659V4.32353H9.7561V3.08824Z" fill="#4F6367"/>
<path d="M10.3659 2.47059H10.9756V3.08824H10.3659V2.47059Z" fill="#4F6367"/>
<path d="M10.9756 1.85294H11.5854V2.47059H10.9756V1.85294Z" fill="#4F6367"/>
<path d="M11.5854 1.23529H12.1951V1.85294H11.5854V1.23529Z" fill="#4F6367"/>
<path d="M12.1951 0.617647H13.4146V1.23529H12.1951V0.617647Z" fill="#4F6367"/>
<path d="M13.4146 0H16.4634V0.617647H13.4146V0Z" fill="#4F6367"/>
<path d="M16.4634 0.617647H17.0732V1.23529H16.4634V0.617647Z" fill="#4F6367"/>
<path d="M17.0732 1.23529H17.6829V1.85294H17.0732V1.23529Z" fill="#4F6367"/>
<path d="M17.6829 1.85294H18.2927V3.08824H17.6829V1.85294Z" fill="#4F6367"/>
<path d="M15.8537 2.47059H17.6829V3.08824H15.8537V2.47059Z" fill="#4F6367"/>
<path d="M15.2439 3.08824H15.8537V5.55882H15.2439V3.08824Z" fill="#4F6367"/>
<path d="M15.8537 4.94118H16.4634V6.79412H15.8537V4.94118Z" fill="#4F6367"/>
<path d="M16.4634 5.55882H17.6829V6.17647H16.4634V5.55882Z" fill="#4F6367"/>
<path d="M17.6829 4.94118H18.2927V5.55882H17.6829V4.94118Z" fill="#4F6367"/>
<path d="M18.2927 3.08824H18.9024V4.94118H18.2927V3.08824Z" fill="#4F6367"/>
<path d="M16.4634 6.79412H17.0732V8.02941H16.4634V6.79412Z" fill="#4F6367"/>
<path d="M17.0732 7.41176H17.6829V8.02941H17.0732V7.41176Z" fill="#4F6367"/>
<path d="M17.6829 6.79412H21.3415V7.41176H17.6829V6.79412Z" fill="#4F6367"/>
<path d="M21.3415 7.41176H22.561V8.02941H21.3415V7.41176Z" fill="#4F6367"/>
<path d="M22.561 8.02941H23.1707V9.26471H22.561V8.02941Z" fill="#4F6367"/>
<path d="M23.1707 9.26471H23.7805V10.5H23.1707V9.26471Z" fill="#4F6367"/>
<path d="M23.7805 10.5H24.3902V12.9706H23.7805V10.5Z" fill="#4F6367"/>
<path d="M23.7805 14.8235H24.3902V15.4412H23.7805V14.8235Z" fill="#4F6367"/>
<path d="M22.561 15.4412H23.7805V16.0588H22.561V15.4412Z" fill="#4F6367"/>
<path d="M21.9512 14.8235H22.561V15.4412H21.9512V14.8235Z" fill="#4F6367"/>
<path d="M21.9512 12.3529H22.561V12.9706H21.9512V12.3529Z" fill="#4F6367"/>
<path d="M20.7317 11.1176H21.9512V11.7353H20.7317V11.1176Z" fill="#4F6367"/>
<path d="M21.3415 11.7353H21.9512V12.3529H21.3415V11.7353Z" fill="#4F6367"/>
<path d="M20.122 10.5H20.7317V11.1176H20.122V10.5Z" fill="#4F6367"/>
<path d="M19.5122 11.1176H20.122V11.7353H19.5122V11.1176Z" fill="#4F6367"/>
<path d="M2.43902 12.3529H3.04878V12.9706H2.43902V12.3529Z" fill="#4F6367"/>
<path d="M3.04878 11.1176H3.65854V11.7353H3.04878V11.1176Z" fill="#4F6367"/>
<path d="M3.04878 11.7353H3.65854V12.3529H3.04878V11.7353Z" fill="#4F6367"/>
<path d="M3.65854 11.1176H4.26829V11.7353H3.65854V11.1176Z" fill="#4F6367"/>
<path d="M4.26829 10.5H4.87805V11.1176H4.26829V10.5Z" fill="#4F6367"/>
<path d="M4.87805 11.1176H5.4878V11.7353H4.87805V11.1176Z" fill="#4F6367"/>
<path d="M4.87805 14.2059H5.4878V17.2941H4.87805V14.2059Z" fill="#4F6367"/>
<path d="M19.5122 14.2059H20.122V17.2941H19.5122V14.2059Z" fill="#4F6367"/>
<path d="M18.9024 17.2941H19.5122V18.5294H18.9024V17.2941Z" fill="#4F6367"/>
<path d="M5.4878 17.2941H6.09756V18.5294H5.4878V17.2941Z" fill="#4F6367"/>
<path d="M6.09756 18.5294H6.70732V19.1471H6.09756V18.5294Z" fill="#4F6367"/>
<path d="M18.2927 18.5294H18.9024V19.1471H18.2927V18.5294Z" fill="#4F6367"/>
<path d="M17.6829 19.1471H18.2927V19.7647H17.6829V19.1471Z" fill="#4F6367"/>
<path d="M6.70732 19.1471H7.31707V19.7647H6.70732V19.1471Z" fill="#4F6367"/>
<path d="M15.8537 19.7647H17.6829V20.3824H15.8537V19.7647Z" fill="#4F6367"/>
<path d="M7.31707 19.7647H9.14634V20.3824H7.31707V19.7647Z" fill="#4F6367"/>
<path d="M9.14634 20.3824H15.8537V21H9.14634V20.3824Z" fill="#4F6367"/>
<path d="M0.609375 14.8256V12.9727H1.82889V13.5903H2.43864V12.9727H3.0484V14.8256H2.43864V15.4432H1.21913V14.8256H0.609375Z" fill="white"/>
<path d="M15.8516 4.94278V3.08984H18.2906V4.94278H17.6808V5.56043H16.4613V4.94278H15.8516Z" fill="white"/>
<path d="M24.3906 14.8256V12.9727H23.1711V13.5903H22.5614V12.9727H21.9516V14.8256H22.5614V15.4432H23.7809V14.8256H24.3906Z" fill="white"/>
<path d="M23.7812 12.969V10.4984H23.1715V9.2631H22.5617V8.0278H21.3422V7.41016H17.6837V8.0278H16.4642V8.64545H17.0739V9.88074H17.6837V11.7337H18.2934V12.969H18.9032V11.7337H19.513V11.116H20.1227V10.4984H20.7325V11.116H21.952V12.3513H22.5617V13.5866H23.1715V12.969H23.7812Z" fill="#FDA200"/>
<path d="M5.48438 17.2937V14.2054H6.09413V12.9701H6.70389V11.7348H7.31364V9.88189H7.9234V8.6466H8.53316V6.79366H9.14291V5.55836H9.75267V4.32307H10.3624V3.08778H10.9722V2.47013H11.5819V1.85248H12.1917V1.23483H13.4112V0.617188H16.46V1.23483H17.0697V1.85248H17.6795V2.47013H15.8502V3.08778H15.2405V5.55836H15.8502V6.79366H16.46V8.6466H17.0697V9.88189H17.6795V11.7348H18.2893V12.9701H18.899V14.2054H19.5088V17.2937H18.899V18.529H18.2893V19.1466H17.6795V19.7642H15.8502V20.3819H9.14291V19.7642H7.31364V19.1466H6.70389V18.529H6.09413V17.2937H5.48438Z" fill="#FD5F55"/>
<path d="M1.21875 12.969V10.4984H1.82851V9.2631H2.43826V8.0278H3.65777V7.41016H7.31631V8.0278H8.53582V8.64545H7.92607V9.88074H7.31631V11.7337H6.70656V12.969H6.0968V11.7337H5.48704V11.116H4.87729V10.4984H4.26753V11.116H3.04802V12.3513H2.43826V13.5866H1.82851V12.969H1.21875Z" fill="#FDA200"/>
<path d="M14.028 12.3516H10.9792V12.9692H9.14996V13.5869H8.54021V14.2045H7.93045V14.8222H7.32069V16.0574H6.71094V17.2927H7.32069V18.528H8.54021V19.1457H10.9792V19.7633H14.028V19.1457H16.467V18.528H17.6865V17.2927H18.2963V16.0574H17.6865V14.8222H17.0768V14.2045H16.467V13.5869H15.8573V12.9692H14.028V12.3516Z" fill="#E2483D"/>
</svg>
